<?xml version="1.0" encoding="iso-8859-1"?>
<!-- Generator: Adobe Illustrator 15.1.0, SVG Export Plug-In . SVG Version: 6.00 Build 0)  -->
<!DOCTYPE svg PUBLIC "-//W3C//DTD SVG 1.1//EN" "http://www.w3.org/Graphics/SVG/1.1/DTD/svg11.dtd">
<svg version="1.1" xmlns="http://www.w3.org/2000/svg" xmlns:xlink="http://www.w3.org/1999/xlink" x="0px" y="0px" width="200px" height="200px" viewBox="0 0 22.229 21.447" style="enable-background:new 0 0 22.229 21.447;" xml:space="preserve">
	<g id="Regen">
		<g id="Regen_1_">
			<g>
				<g>
					<path style="fill-rule:evenodd;clip-rule:evenodd;fill:#77787B;" d="M16.166,4.041c-0.352,0-0.691,0.047-1.027,0.104
					C13.756,1.673,11.117,0,8.082,0C3.619,0,0,3.619,0,8.083c0,3.027,1.667,5.663,4.131,7.047c0.14-0.639,0.45-1.246,0.946-1.742
					l0.028-0.029c-1.84-1.039-3.085-3.012-3.085-5.276c0-3.35,2.714-6.064,6.062-6.064c2.877,0,5.271,2.01,5.895,4.695
					c0.631-0.41,1.381-0.652,2.189-0.652c2.232,0,4.041,1.809,4.041,4.041c0,1.74-1.102,3.221-2.645,3.79
					c0.398,0.58,0.604,1.248,0.617,1.922c2.357-0.83,4.049-3.068,4.049-5.711C22.229,6.755,19.515,4.041,16.166,4.041z" />
				</g>
			</g>
			<path style="fill-rule:evenodd;clip-rule:evenodd;fill:#00B6F1;" d="M15.723,16.961c-0.592,0.592-1.552,0.592-2.144,0
			s-0.592-1.551,0-2.143l1.071-1.072l1.072,1.072C16.314,15.41,16.314,16.369,15.723,16.961z M10.043,21.004
			c-0.592-0.592-0.592-1.553,0-2.145l1.072-1.072l1.07,1.072c0.592,0.592,0.592,1.553,0,2.145S10.635,21.596,10.043,21.004z
			 M10.043,13.004c-0.592-0.592-0.592-1.553,0-2.145l1.072-1.072l1.07,1.072c0.592,0.592,0.592,1.553,0,2.145
			S10.635,13.596,10.043,13.004z M6.506,16.961c-0.592-0.592-0.592-1.551,0-2.143l1.072-1.072l1.07,1.072
			c0.593,0.592,0.593,1.551,0,2.143C8.058,17.553,7.098,17.553,6.506,16.961z" />
		</g>
	</g>
	<g id="Layer_1"></g>
</svg>
